<svg id="Layer_1" data-name="Layer 1" xmlns="http://www.w3.org/2000/svg" xmlns:xlink="http://www.w3.org/1999/xlink" viewBox="0 0 24.26 30.62"><defs><style>.cls-1{fill:none;}.cls-2{clip-path:url(#clip-path);}.cls-3{fill:#231f20;}</style><clipPath id="clip-path" transform="translate(0.04 0)"><polygon class="cls-1" points="-30.41 -21.16 62.12 -22.09 62.12 47.31 -30.41 48.24 -30.41 -21.16"/></clipPath></defs><title>black logo</title><g id="Layer_2" data-name="Layer 2"><g id="Layer_1-2" data-name="Layer 1-2"><g class="cls-2"><g id="MD_logo" data-name="MD logo"><g class="cls-2"><path class="cls-3" d="M7.66,9.32c-.2.13-.38.23-.56.36-.72.51-1.48,1-2.15,1.54a10.2,10.2,0,0,0-3,4.18,5.61,5.61,0,0,0-.36,1.74,6.66,6.66,0,0,0,.19,2,4.69,4.69,0,0,0,.86,1.59,5.3,5.3,0,0,0,1.28,1.18,8.3,8.3,0,0,0,1,.53l.72.34a.83.83,0,0,0,.21.07.31.31,0,0,1,.33.27.35.35,0,0,1-.33.33,4.49,4.49,0,0,1-2.75-.64A6.06,6.06,0,0,1,.59,20.23,4.92,4.92,0,0,1,0,18.33,11.21,11.21,0,0,1,0,16.78,7.75,7.75,0,0,1,.8,13.61a13.62,13.62,0,0,1,1.79-2.55A9.38,9.38,0,0,1,5.92,8.58,6.08,6.08,0,0,1,8.34,8,2.32,2.32,0,0,1,9,8.18c.07,0,.07.07,0,.12l-.11.14a28.35,28.35,0,0,1,2.89,5.19c.16-.2.32-.37.46-.55.59-.81,1.18-1.62,1.75-2.45s1-1.54,1.51-2.31a2.53,2.53,0,0,1,.31-.43.9.9,0,0,1,.86-.24,6.36,6.36,0,0,1,4,2.57,23.73,23.73,0,0,1,2,2.88,12.29,12.29,0,0,1,1.5,4.12,9.69,9.69,0,0,1,.09,2.32,8.7,8.7,0,0,1-1.59,4.13A13.13,13.13,0,0,1,20.47,26a22.1,22.1,0,0,1-4.83,3.34,13.74,13.74,0,0,1-2.76,1,7.09,7.09,0,0,1-1.84.25,7.6,7.6,0,0,1-1.61-.16.37.37,0,0,1-.09-.73c.4-.14.8-.29,1.21-.41a30.38,30.38,0,0,0,4-1.58A20.42,20.42,0,0,0,17,26.29a15.75,15.75,0,0,0,3-2.59,8.19,8.19,0,0,0,2-3.54,6.12,6.12,0,0,0,.13-1.9A10.22,10.22,0,0,0,21,14.42a17.58,17.58,0,0,0-1.67-2.66A7,7,0,0,0,18,10.37a4,4,0,0,0-1-.56c-.1,0-.12,0-.15.09-.41.63-.81,1.28-1.24,1.9q-.84,1.22-1.73,2.41a8.67,8.67,0,0,1-.89,1c-.14.17-.29.33-.42.5a1.08,1.08,0,0,1-1.52.14l0,0a2.21,2.21,0,0,1-.55-.72c-.29-.6-.58-1.19-.85-1.8-.39-.86-.83-1.7-1.28-2.53a6,6,0,0,1-.65-1.48" transform="translate(0.04 0)"/><path class="cls-3" d="M13.91,1.49c-.06.6-.1,1.2-.19,1.8s-.23,1.4-.36,2.11a2.21,2.21,0,0,1-.15.47.57.57,0,0,1-1,.12A1.66,1.66,0,0,1,12,5.22,5.51,5.51,0,0,1,12,3.7c.06-.49.12-1,.2-1.46A4.62,4.62,0,0,1,12.64.69,1.51,1.51,0,0,1,13,.29a.44.44,0,0,1,.76.21,5.24,5.24,0,0,1,.15.76,1.39,1.39,0,0,1,0,.23h0" transform="translate(0.04 0)"/><path class="cls-3" d="M7.16,1.2A5.55,5.55,0,0,1,7.23.54a1,1,0,0,1,.21-.4.36.36,0,0,1,.5-.07l0,0a1,1,0,0,1,.28.35,11.06,11.06,0,0,1,.68,2.13c.12.59.25,1.18.36,1.78a2.69,2.69,0,0,1,0,1.11A.67.67,0,0,1,8.72,6,.68.68,0,0,1,8,5.6,3.44,3.44,0,0,1,7.82,5c-.12-.45-.23-.89-.34-1.34a11.06,11.06,0,0,1-.25-1.82V1.22" transform="translate(0.04 0)"/><path class="cls-3" d="M19.22,1.43a3.64,3.64,0,0,1-.35,1.25c-.24.56-.5,1.12-.75,1.69-.07.15-.11.32-.19.46a7.33,7.33,0,0,1-.46.8.65.65,0,0,1-1.14-.08,1.2,1.2,0,0,1-.1-.84,9.22,9.22,0,0,1,.88-2.37,3.55,3.55,0,0,1,1-1.21,1.31,1.31,0,0,1,.63-.25.48.48,0,0,1,.49.56" transform="translate(0.04 0)"/></g></g></g></g></g></svg>